<svg id="Layer_1" data-name="Layer 1" xmlns="http://www.w3.org/2000/svg" viewBox="0 0 703 323.4"><defs><style>.cls-1,.cls-16{fill:none;stroke:#fff;stroke-linecap:round;stroke-linejoin:round;}.cls-1{stroke-width:2px;}.cls-15,.cls-2{opacity:0.7;}.cls-2{font-size:14px;font-family:"Lato", sans-serif;}.cls-14,.cls-2{fill:#fff;}.cls-3{letter-spacing:-0.02em;}.cls-4{letter-spacing:0em;}.cls-5{letter-spacing:-0.01em;}.cls-6{letter-spacing:-0.01em;}.cls-7{letter-spacing:-0.03em;}.cls-8{letter-spacing:-0.01em;}.cls-9{letter-spacing:0em;}.cls-10{letter-spacing:-0.01em;}.cls-11{letter-spacing:0em;}.cls-12{letter-spacing:0.06em;}.cls-13{letter-spacing:0em;}.cls-16{stroke-dasharray:10 10;}</style></defs><title>architecture</title><path class="cls-1" d="M133.46,109.11c-11.73-1.37-24-1.92-34.84,3.57s-19.83,18.64-18.49,32.65c1.37,14.23,12.33,24.28,23.23,30.16a85.62,85.62,0,0,0,47.58,10.24c13.62-1.11,28.58-7.08,34.58-21.76,5.43-13.29,1.42-30.06-7-40.88s-20.4-16.66-32.36-20.4A128,128,0,0,0,114.61,97" transform="translate(-45 -41)"/><text class="cls-2" transform="translate(411.82 123.65)">(<tspan class="cls-3" x="4.26" y="0">P</tspan><tspan x="12.01" y="0">ub/Su</tspan><tspan class="cls-4" x="49.62" y="0">b</tspan><tspan x="58.11" y="0">)</tspan></text><text class="cls-2" transform="translate(411.82 219.65)">(<tspan class="cls-3" x="4.26" y="0">P</tspan><tspan x="12.01" y="0">ub/Su</tspan><tspan class="cls-4" x="49.62" y="0">b</tspan><tspan x="58.11" y="0">)</tspan></text><text class="cls-2" transform="translate(571.02 169.65)">(Back<tspan class="cls-5" x="35.38" y="0">g</tspan><tspan class="cls-6" x="41.67" y="0">r</tspan><tspan x="46.42" y="0">ound)</tspan></text><text class="cls-2" transform="translate(247.16 319.65)">(<tspan class="cls-7" x="4.26" y="0">P</tspan><tspan x="11.86" y="0">os</tspan><tspan class="cls-5" x="27.04" y="0">tg</tspan><tspan class="cls-6" x="39.21" y="0">r</tspan><tspan x="43.96" y="0">es)</tspan></text><text class="cls-2" transform="translate(87.58 218.65)"><tspan class="cls-8">(</tspan><tspan x="4.08" y="0">Clie</tspan><tspan class="cls-9" x="27.34" y="0">n</tspan><tspan x="35.61" y="0">t)</tspan></text><text class="cls-2" transform="translate(67.58 123.65)"><tspan class="cls-8">(</tspan><tspan x="4.08" y="0">Clie</tspan><tspan class="cls-9" x="27.34" y="0">n</tspan><tspan x="35.61" y="0">t)</tspan></text><text class="cls-2" transform="translate(243.04 175.65)"><tspan class="cls-10">(</tspan><tspan class="cls-11" x="4.09" y="0">A</tspan><tspan x="13.23" y="0">pi RES</tspan><tspan class="cls-12" x="56.3" y="0">T</tspan><tspan x="65.65" y="0">)</tspan></text><text class="cls-2" transform="translate(257.96 32.65)">(<tspan class="cls-13" x="4.26" y="0">R</tspan><tspan x="13.39" y="0">edis)</tspan></text><g id="Cache"><path class="cls-14" d="M307.33,52.38c-.61,2.83-2.74,4.89-6.54,4.89-4.81,0-7.09-3.4-7.09-7.72,0-4.15,2.35-7.88,7.24-7.88,4,0,6,2.37,6.37,4.91H304a3,3,0,0,0-3.19-2.34c-2.71,0-3.75,2.43-3.75,5.2,0,2.56.91,5.26,3.84,5.26a3,3,0,0,0,3.1-2.32Z" transform="translate(-45 -41)"/><path class="cls-14" d="M318.93,54.12a24.47,24.47,0,0,0,.16,2.94h-3a5.5,5.5,0,0,1-.16-1.11c-.41.64-1.18,1.37-3.2,1.37-2.74,0-3.9-1.8-3.9-3.57,0-2.59,2.08-3.79,5.42-3.79h1.63v-.7c0-.81-.29-1.6-1.76-1.6s-1.62.56-1.77,1.39h-3c.17-2,1.42-3.66,4.88-3.64,3,0,4.71,1.21,4.71,3.92Zm-3.07-2.25h-1.29c-1.9,0-2.6.58-2.6,1.68a1.46,1.46,0,0,0,1.64,1.52c2,0,2.25-1.39,2.25-2.9Z" transform="translate(-45 -41)"/><path class="cls-14" d="M331.58,53.38c-.39,1.9-1.73,3.94-5.12,3.94s-5.37-2.45-5.37-5.87,2.05-6,5.52-6c3.84,0,4.91,2.75,5,4H328.5a1.78,1.78,0,0,0-1.95-1.58c-1.44,0-2.26,1.27-2.26,3.48,0,2.42.87,3.53,2.25,3.53a1.93,1.93,0,0,0,1.94-1.5Z" transform="translate(-45 -41)"/><path class="cls-14" d="M336.66,41v6a3.66,3.66,0,0,1,3.26-1.6c2.12,0,3.81,1.25,3.81,4.34v7.31H340.6V50.22c0-1.48-.52-2.26-1.85-2.26-1.75,0-2.09,1.3-2.09,3.06v6H333.5V41Z" transform="translate(-45 -41)"/><path class="cls-14" d="M349.07,52c0,1.42.72,2.82,2.29,2.82a1.8,1.8,0,0,0,2-1.22h3.15a5,5,0,0,1-5.22,3.68c-3.75,0-5.38-2.8-5.38-5.79,0-3.57,1.83-6.12,5.49-6.12,3.91,0,5.24,2.83,5.24,5.67a7.32,7.32,0,0,1,0,1Zm4.4-1.94c0-1.32-.55-2.44-2.08-2.44s-2.12,1-2.25,2.44Z" transform="translate(-45 -41)"/></g><path class="cls-14" d="M293.14,194.61c.35,1.53,1.44,2.19,3.2,2.19s2.5-.69,2.5-1.8-.73-1.77-3.33-2.37c-4.13-1-5.15-2.47-5.15-4.52,0-2.65,2-4.44,5.57-4.44,4,0,5.63,2.16,5.85,4.38h-3.3c-.16-.93-.68-1.94-2.63-1.94-1.33,0-2.14.55-2.14,1.62s.65,1.49,3.1,2.05c4.41,1,5.38,2.68,5.38,4.82,0,2.77-2.1,4.67-6.11,4.67-3.85,0-5.88-1.89-6.24-4.66Z" transform="translate(-45 -41)"/><path class="cls-14" d="M307.09,194c0,1.42.71,2.82,2.28,2.82a1.8,1.8,0,0,0,2-1.22h3.16a5,5,0,0,1-5.23,3.68c-3.75,0-5.38-2.8-5.38-5.79,0-3.57,1.84-6.12,5.49-6.12,3.92,0,5.25,2.83,5.25,5.67a5.87,5.87,0,0,1,0,1Zm4.4-1.94c0-1.32-.55-2.44-2.09-2.44s-2.12,1-2.25,2.44Z" transform="translate(-45 -41)"/><path class="cls-14" d="M316.85,190.76c0-1.13,0-2.14,0-3.09h3.09c0,.26.08,1.39.08,2a3.66,3.66,0,0,1,3.66-2.26v3c-2.29-.06-3.66.55-3.66,3.67v5h-3.15Z" transform="translate(-45 -41)"/><path class="cls-14" d="M328.19,187.67c1.09,3.86,2,7.23,2.22,8.6h0c.32-1.88,1.43-5.31,2.42-8.6H336l-4,11.39h-3.31l-3.86-11.39Z" transform="translate(-45 -41)"/><path class="cls-14" d="M339.86,194c0,1.42.72,2.82,2.29,2.82a1.78,1.78,0,0,0,2-1.22h3.16a5,5,0,0,1-5.23,3.68c-3.75,0-5.37-2.8-5.37-5.79,0-3.57,1.83-6.12,5.49-6.12,3.91,0,5.24,2.83,5.24,5.67a7.32,7.32,0,0,1,0,1Zm4.4-1.94c0-1.32-.55-2.44-2.09-2.44s-2.12,1-2.24,2.44Z" transform="translate(-45 -41)"/><path class="cls-14" d="M349.63,190.76c0-1.13,0-2.14,0-3.09h3.1c0,.26.08,1.39.08,2a3.64,3.64,0,0,1,3.65-2.26v3c-2.29-.06-3.65.55-3.65,3.67v5h-3.15Z" transform="translate(-45 -41)"/><path class="cls-14" d="M464.35,142v6.07h-3.2V132.89h6.66c3.31,0,5.09,1.82,5.09,4.16a3.63,3.63,0,0,1-2.2,3.59c.75.28,1.88,1.06,1.88,3.78v.75a12,12,0,0,0,.22,2.89h-3.11a10.94,10.94,0,0,1-.31-3.41v-.22c0-1.66-.42-2.44-2.87-2.44Zm0-2.61h2.75c1.8,0,2.49-.69,2.49-2s-.8-1.92-2.41-1.92h-2.83Z" transform="translate(-45 -41)"/><path class="cls-14" d="M477.71,143c0,1.42.71,2.82,2.28,2.82a1.8,1.8,0,0,0,2-1.22h3.15a5,5,0,0,1-5.22,3.68c-3.75,0-5.38-2.8-5.38-5.79,0-3.57,1.83-6.12,5.49-6.12,3.91,0,5.24,2.83,5.24,5.67a7.32,7.32,0,0,1,0,1Zm4.39-1.94c0-1.32-.55-2.44-2.08-2.44s-2.12,1-2.25,2.44Z" transform="translate(-45 -41)"/><path class="cls-14" d="M498.05,132v12.93c0,1,0,2.09,0,3.13h-3c-.06-.34-.12-.93-.14-1.19a3.42,3.42,0,0,1-3.23,1.45c-2.88,0-4.72-2.31-4.72-5.86s1.95-6.05,5.18-6.05c1.63,0,2.51.57,2.77,1.08V132Zm-7.86,10.38c0,2.22.87,3.42,2.41,3.42,2.17,0,2.42-1.81,2.42-3.45,0-1.95-.28-3.42-2.34-3.42C491,138.93,490.19,140.22,490.19,142.38Z" transform="translate(-45 -41)"/><path class="cls-14" d="M500.84,132H504v2.81h-3.16Zm0,4.67H504v11.39h-3.16Z" transform="translate(-45 -41)"/><path class="cls-14" d="M509,144.64a2,2,0,0,0,2.16,1.41c1.16,0,1.59-.42,1.59-1.11s-.49-1-2.12-1.41c-3.71-.92-4.32-2.07-4.32-3.67s1.18-3.45,4.62-3.45,4.62,1.88,4.72,3.42h-3c-.1-.42-.38-1.21-1.86-1.21-1,0-1.38.46-1.38,1s.35.84,2.2,1.27c3.8.89,4.34,2.19,4.34,3.86,0,1.89-1.44,3.6-4.91,3.6s-4.88-1.67-5.13-3.68Z" transform="translate(-45 -41)"/><path class="cls-14" d="M469.69,238.61c.34,1.53,1.44,2.19,3.19,2.19s2.5-.69,2.5-1.8-.73-1.77-3.33-2.37c-4.12-1-5.14-2.47-5.14-4.52,0-2.65,2-4.44,5.56-4.44,4,0,5.64,2.16,5.85,4.38H475c-.16-.93-.68-1.94-2.63-1.94-1.33,0-2.14.55-2.14,1.62s.65,1.49,3.1,2.05c4.41,1,5.38,2.68,5.38,4.82,0,2.77-2.1,4.67-6.11,4.67-3.85,0-5.87-1.89-6.24-4.66Z" transform="translate(-45 -41)"/><path class="cls-14" d="M495.3,235.42c0,4.22-2.53,7.86-7.46,7.86-4.76,0-7.25-3.46-7.25-7.81s2.75-7.8,7.46-7.8C492.49,227.67,495.3,230.78,495.3,235.42Zm-11.33,0c0,3,1.3,5.2,4,5.2,2.92,0,4-2.44,4-5.15,0-2.87-1.17-5.12-4-5.12S484,232.45,484,235.41Zm8.14,5.33,4.31,2.95-1.9,2.18-5.35-3.7Z" transform="translate(-45 -41)"/><path class="cls-14" d="M500.41,238.61c.35,1.53,1.44,2.19,3.2,2.19s2.5-.69,2.5-1.8-.73-1.77-3.33-2.37c-4.13-1-5.15-2.47-5.15-4.52,0-2.65,2-4.44,5.57-4.44,4,0,5.63,2.16,5.85,4.38h-3.3c-.16-.93-.68-1.94-2.63-1.94-1.34,0-2.14.55-2.14,1.62s.65,1.49,3.1,2.05c4.41,1,5.38,2.68,5.38,4.82,0,2.77-2.1,4.67-6.11,4.67-3.85,0-5.88-1.89-6.24-4.66Z" transform="translate(-45 -41)"/><path class="cls-14" d="M625.14,195.06l-3.87-15.17h3.5c1.42,7,2.07,10.06,2.25,11.73h0c.58-2.79,2-8.07,2.93-11.73h2.94c.78,2.91,2.32,8.8,2.81,11.57h0c.51-3.34,2-9.21,2.53-11.57h3.19l-4.11,15.17H634c-.8-3.36-2.13-8.26-2.67-10.86h0c-.55,2.7-1.92,7.81-2.73,10.86Z" transform="translate(-45 -41)"/><path class="cls-14" d="M652.85,189.34c0,3.45-2.06,6-5.67,6s-5.59-2.52-5.59-5.92,2.12-6,5.74-6C650.68,183.41,652.85,185.77,652.85,189.34Zm-8.06,0c0,2.2.94,3.5,2.46,3.5s2.4-1.3,2.4-3.48c0-2.38-.88-3.51-2.45-3.51S644.79,187,644.79,189.36Z" transform="translate(-45 -41)"/><path class="cls-14" d="M655,186.76c0-1.13,0-2.14,0-3.09h3.09a20,20,0,0,1,.09,2,3.64,3.64,0,0,1,3.65-2.26v3c-2.29-.06-3.65.55-3.65,3.67v5H655Z" transform="translate(-45 -41)"/><path class="cls-14" d="M666.76,188.48c.83-1.14,2.35-2.91,3.92-4.81h3.61l-4,4.3,4.35,7.09H671.1L668.21,190l-1.45,1.41v3.66H663.6V179h3.16Z" transform="translate(-45 -41)"/><path class="cls-14" d="M678.08,190c0,1.42.72,2.82,2.29,2.82a1.79,1.79,0,0,0,2-1.22h3.16a5,5,0,0,1-5.23,3.68c-3.75,0-5.37-2.8-5.37-5.79,0-3.57,1.83-6.12,5.49-6.12,3.91,0,5.24,2.83,5.24,5.67a7.32,7.32,0,0,1,0,1Zm4.4-1.94c0-1.32-.55-2.44-2.09-2.44s-2.12,1-2.24,2.44Z" transform="translate(-45 -41)"/><path class="cls-14" d="M687.84,186.76c0-1.13,0-2.14,0-3.09h3.09a20,20,0,0,1,.09,2,3.64,3.64,0,0,1,3.65-2.26v3c-2.29-.06-3.65.55-3.65,3.67v5h-3.16Z" transform="translate(-45 -41)"/><path class="cls-14" d="M277.24,328.89h6c4.42,0,7.31,2.91,7.31,7.39s-2.81,7.78-7.45,7.78h-5.88Zm3.28,12.52H283c2.91,0,4.2-2.16,4.2-5.12,0-2.48-1.21-4.75-4.18-4.75h-2.48Z" transform="translate(-45 -41)"/><path class="cls-14" d="M302.29,341.12a25.05,25.05,0,0,0,.15,2.94h-3a4.37,4.37,0,0,1-.16-1.11c-.42.64-1.19,1.37-3.2,1.37-2.75,0-3.91-1.8-3.91-3.57,0-2.59,2.09-3.79,5.42-3.79h1.63v-.7c0-.81-.29-1.6-1.75-1.6s-1.63.56-1.77,1.39h-3c.17-2,1.42-3.66,4.88-3.64,3.06,0,4.72,1.21,4.72,3.92Zm-3.08-2.25h-1.28c-1.9,0-2.61.58-2.61,1.68a1.46,1.46,0,0,0,1.64,1.52c2,0,2.25-1.39,2.25-2.9Z" transform="translate(-45 -41)"/><path class="cls-14" d="M303.81,332.67h1.76v-3.08h3.15v3.08H311V335h-2.23v5.62c0,.87.26,1.2,1.2,1.2a6.19,6.19,0,0,0,.72,0V344a7.21,7.21,0,0,1-2.12.21c-2.22,0-2.95-1.19-2.95-3.18v-6h-1.76Z" transform="translate(-45 -41)"/><path class="cls-14" d="M322.22,341.12a27.53,27.53,0,0,0,.15,2.94h-3a4.87,4.87,0,0,1-.16-1.11c-.41.64-1.19,1.37-3.2,1.37-2.75,0-3.91-1.8-3.91-3.57,0-2.59,2.09-3.79,5.43-3.79h1.62v-.7c0-.81-.29-1.6-1.75-1.6s-1.62.56-1.77,1.39h-3c.17-2,1.42-3.66,4.89-3.64,3.05,0,4.71,1.21,4.71,3.92Zm-3.07-2.25h-1.29c-1.9,0-2.6.58-2.6,1.68a1.46,1.46,0,0,0,1.64,1.52c2,0,2.25-1.39,2.25-2.9Z" transform="translate(-45 -41)"/><path class="cls-14" d="M325.07,328h3.16v5.88a3.56,3.56,0,0,1,3.25-1.47c3.1,0,4.65,2.56,4.65,5.75s-1.68,6.16-4.95,6.16c-1.69,0-2.44-.51-3-1.34a5.75,5.75,0,0,1-.12,1.08h-3c0-1.24,0-2.49,0-3.72Zm7.86,10.22c0-1.9-.7-3.29-2.41-3.29s-2.44,1.17-2.44,3.5c0,1.91.57,3.39,2.41,3.39C332.09,341.82,332.93,340.38,332.93,338.22Z" transform="translate(-45 -41)"/><path class="cls-14" d="M347.67,341.12a24.47,24.47,0,0,0,.16,2.94h-3a4.37,4.37,0,0,1-.16-1.11c-.42.64-1.19,1.37-3.2,1.37-2.75,0-3.91-1.8-3.91-3.57,0-2.59,2.08-3.79,5.42-3.79h1.63v-.7c0-.81-.29-1.6-1.75-1.6s-1.63.56-1.77,1.39h-3c.17-2,1.42-3.66,4.88-3.64,3.05,0,4.71,1.21,4.71,3.92Zm-3.07-2.25h-1.28c-1.9,0-2.61.58-2.61,1.68a1.46,1.46,0,0,0,1.64,1.52c2,0,2.25-1.39,2.25-2.9Z" transform="translate(-45 -41)"/><path class="cls-14" d="M352.66,340.64a2,2,0,0,0,2.15,1.41c1.17,0,1.59-.42,1.59-1.11s-.49-1-2.12-1.41c-3.71-.92-4.32-2.07-4.32-3.67s1.18-3.45,4.62-3.45,4.62,1.88,4.72,3.42h-3c-.1-.42-.38-1.21-1.86-1.21-1,0-1.38.46-1.38,1s.35.84,2.2,1.27c3.8.89,4.34,2.19,4.34,3.86,0,1.89-1.43,3.6-4.91,3.6s-4.88-1.67-5.13-3.68Z" transform="translate(-45 -41)"/><path class="cls-14" d="M364.28,339c0,1.42.72,2.82,2.29,2.82a1.8,1.8,0,0,0,2-1.22h3.15a5,5,0,0,1-5.22,3.68c-3.75,0-5.38-2.8-5.38-5.79,0-3.57,1.83-6.12,5.49-6.12,3.91,0,5.24,2.83,5.24,5.67a7.32,7.32,0,0,1,0,1Zm4.4-1.94c0-1.32-.55-2.44-2.09-2.44s-2.11,1-2.24,2.44Z" transform="translate(-45 -41)"/><path class="cls-14" d="M127.4,239.56l-1.18,3.5H123l5.15-15.17h4.12l5.38,15.17h-3.45l-1.25-3.5Zm4.84-2.69c-1.08-3.2-1.77-5.25-2.13-6.61h0c-.37,1.49-1.13,3.87-2,6.61Z" transform="translate(-45 -41)"/><path class="cls-14" d="M149.68,227v12.93c0,1,0,2.09,0,3.13h-3c-.07-.34-.13-.93-.15-1.19a3.42,3.42,0,0,1-3.23,1.45c-2.88,0-4.71-2.31-4.71-5.86s1.95-6.05,5.17-6.05c1.64,0,2.52.57,2.77,1.08V227Zm-7.86,10.38c0,2.22.86,3.42,2.41,3.42,2.17,0,2.42-1.81,2.42-3.45,0-1.95-.28-3.42-2.34-3.42C142.65,233.93,141.82,235.22,141.82,237.38Z" transform="translate(-45 -41)"/><path class="cls-14" d="M152.47,234.61c0-1,0-2,0-2.94h3a13.41,13.41,0,0,1,.13,1.36,3.53,3.53,0,0,1,3.16-1.62,3,3,0,0,1,2.94,1.73,4,4,0,0,1,3.51-1.73c2,0,3.61,1.22,3.61,4.18v7.47h-3.08V236c0-1-.37-2-1.66-2s-1.86.86-1.86,2.61v6.51h-3.1v-7c0-1.18-.29-2.13-1.63-2.13s-1.89.78-1.89,2.74v6.36h-3.12Z" transform="translate(-45 -41)"/><path class="cls-14" d="M171.64,227h3.15v2.81h-3.15Zm0,4.67h3.15v11.39h-3.15Z" transform="translate(-45 -41)"/><path class="cls-14" d="M177.64,234.54c0-1,0-2,0-2.87h3.06c.06.29.1,1.08.12,1.45a3.47,3.47,0,0,1,3.3-1.71c2.29,0,3.78,1.54,3.78,4.4v7.25h-3.16v-6.9c0-1.28-.43-2.2-1.82-2.2s-2.1.74-2.1,2.75v6.35h-3.16Z" transform="translate(-45 -41)"/><path class="cls-14" d="M93,132.89h6.28c3.22,0,5.41,1.81,5.41,4.7,0,3.29-2.49,4.8-5.49,4.8H96.32v5.67H93Zm3.29,6.89h2.5c1.52,0,2.59-.58,2.59-2.13s-1.13-2.15-2.52-2.15H96.32Z" transform="translate(-45 -41)"/><path class="cls-14" d="M117,142.34c0,3.45-2.06,6-5.67,6s-5.59-2.52-5.59-5.92,2.12-6,5.74-6C114.85,136.41,117,138.77,117,142.34Zm-8.06,0c0,2.2.94,3.5,2.46,3.5s2.4-1.3,2.4-3.48c0-2.38-.87-3.51-2.44-3.51S109,140,109,142.36Z" transform="translate(-45 -41)"/><path class="cls-14" d="M119.19,139.76c0-1.13,0-2.14,0-3.09h3.1c0,.26.08,1.39.08,2a3.64,3.64,0,0,1,3.65-2.26v3c-2.29-.06-3.65.55-3.65,3.67v5h-3.15Z" transform="translate(-45 -41)"/><path class="cls-14" d="M127.19,136.67H129v-3.08h3.15v3.08h2.23V139H132.1v5.62c0,.87.27,1.2,1.21,1.2a6.11,6.11,0,0,0,.71,0V148a7.18,7.18,0,0,1-2.11.21c-2.23,0-3-1.19-3-3.18v-6h-1.76Z" transform="translate(-45 -41)"/><path class="cls-14" d="M136.09,148.06v-9h-1.66v-2.37h1.66v-1c0-2.35,1.17-3.89,3.63-3.89a6.42,6.42,0,0,1,1.47.13v2.49a4.17,4.17,0,0,0-.67-.05c-.93,0-1.27.34-1.27,1.56v.76h2V139h-2v9Z" transform="translate(-45 -41)"/><path class="cls-14" d="M153.29,142.34c0,3.45-2.06,6-5.67,6S142,145.8,142,142.4s2.13-6,5.74-6C151.12,136.41,153.29,138.77,153.29,142.34Zm-8.06,0c0,2.2.94,3.5,2.46,3.5s2.4-1.3,2.4-3.48c0-2.38-.87-3.51-2.44-3.51S145.23,140,145.23,142.36Z" transform="translate(-45 -41)"/><path class="cls-14" d="M155.46,148.06V132h3.15v16.06Z" transform="translate(-45 -41)"/><path class="cls-14" d="M161.44,132h3.16v2.81h-3.16Zm0,4.67h3.16v11.39h-3.16Z" transform="translate(-45 -41)"/><path class="cls-14" d="M178,142.34c0,3.45-2.07,6-5.67,6s-5.6-2.52-5.6-5.92,2.13-6,5.75-6C175.86,136.41,178,138.77,178,142.34Zm-8.07,0c0,2.2.95,3.5,2.47,3.5s2.4-1.3,2.4-3.48c0-2.38-.88-3.51-2.45-3.51S170,140,170,142.36Z" transform="translate(-45 -41)"/><g class="cls-15"><line class="cls-14" x1="322.64" y1="138.16" x2="406" y2="100.15"/><line class="cls-16" x1="328.08" y1="135.68" x2="406" y2="100.15"/><polygon class="cls-14" points="332.17 137.88 329.2 135.17 329.1 131.15 322.64 138.16 332.17 137.88"/></g><g class="cls-15"><line class="cls-14" x1="321.37" y1="164.03" x2="405.43" y2="195.43"/><line class="cls-16" x1="321.37" y1="164.03" x2="399.84" y2="193.34"/><polygon class="cls-14" points="395.91 195.83 398.68 192.91 398.5 188.89 405.43 195.43 395.91 195.83"/></g><g class="cls-15"><line class="cls-14" x1="278.5" y1="276" x2="278.14" y2="189.5"/><line class="cls-16" x1="278.48" y1="270.03" x2="278.17" y2="196.56"/><polygon class="cls-14" points="282.17 267.21 278.47 268.8 274.76 267.24 278.5 276 282.17 267.21"/><polygon class="cls-14" points="278.14 189.5 282.25 199.44 278.18 197.09 274.12 199.47 278.14 189.5"/></g><g class="cls-15"><line class="cls-14" x1="480.37" y1="98.03" x2="564.43" y2="129.43"/><line class="cls-16" x1="486.98" y1="100.5" x2="564.43" y2="129.43"/><polygon class="cls-14" points="480.37 98.03 488.27 105.32 487.48 100.68 491.11 97.7 480.37 98.03"/></g><g class="cls-15"><line class="cls-14" x1="480.64" y1="195.16" x2="564" y2="157.15"/><line class="cls-16" x1="480.64" y1="195.16" x2="557.58" y2="160.08"/><polygon class="cls-14" points="564 157.15 556.63 164.97 557.1 160.3 553.26 157.58 564 157.15"/></g><g class="cls-15"><line class="cls-14" x1="234.73" y1="138.16" x2="151.37" y2="100.15"/><line class="cls-16" x1="229.29" y1="135.68" x2="157.79" y2="103.08"/><polygon class="cls-14" points="228.28 131.15 228.17 135.17 225.2 137.88 234.73 138.16 228.28 131.15"/><polygon class="cls-14" points="151.37 100.15 162.11 100.58 158.28 103.3 158.74 107.97 151.37 100.15"/></g><g class="cls-15"><line class="cls-14" x1="236" y1="164.03" x2="151.94" y2="195.43"/><line class="cls-16" x1="230.41" y1="166.11" x2="157.53" y2="193.34"/><polygon class="cls-14" points="226.48 163.63 229.25 166.55 229.07 170.57 236 164.03 226.48 163.63"/><polygon class="cls-14" points="158.87 188.89 158.69 192.91 161.46 195.83 151.94 195.43 158.87 188.89"/></g><g class="cls-15"><line class="cls-14" x1="279.5" y1="132" x2="279.14" y2="45.5"/><line class="cls-16" x1="279.48" y1="126.03" x2="279.17" y2="52.56"/><polygon class="cls-14" points="283.17 123.21 279.47 124.8 275.76 123.24 279.5 132 283.17 123.21"/><polygon class="cls-14" points="279.14 45.5 283.25 55.44 279.18 53.09 275.12 55.47 279.14 45.5"/></g></svg>